<?xml version="1.0" encoding="UTF-8" standalone="no"?>
<!DOCTYPE svg PUBLIC "-//W3C//DTD SVG 1.1//EN" "http://www.w3.org/Graphics/SVG/1.1/DTD/svg11.dtd">
<svg xmlns="http://www.w3.org/2000/svg" version="1.1" viewBox="0.00 0.00 160.00 79.00">
<g stroke-width="2.00" fill="none" stroke-linecap="butt">
<path stroke="#7f7f7f" vector-effect="non-scaling-stroke" d="
  M 39.79 33.96
  A 1.93 1.93 0.0 0 1 39.14 31.06
  C 40.50 29.29 43.78 30.08 45.45 30.90
  Q 45.80 31.07 45.95 30.72
  L 46.93 28.51
  A 0.44 0.43 -65.5 0 0 46.72 27.93
  C 43.09 26.20 36.61 25.86 35.17 30.58
  C 32.44 39.55 45.84 37.04 43.75 42.60
  Q 43.53 43.18 42.97 43.42
  Q 39.76 44.84 36.40 42.80
  Q 35.75 42.40 35.48 43.12
  L 34.71 45.19
  Q 34.48 45.81 35.08 46.08
  Q 39.07 47.86 43.72 46.85
  C 46.97 46.15 48.51 43.12 47.80 40.03
  C 46.88 36.09 42.88 35.55 39.79 33.96"
/>
<path stroke="#7f7f7f" vector-effect="non-scaling-stroke" d="
  M 121.98 47.09
  C 128.68 46.24 128.66 37.34 127.59 32.27
  C 126.95 29.29 124.72 26.94 121.56 26.77
  C 117.08 26.54 114.65 29.80 114.13 33.88
  C 113.39 39.56 114.18 48.08 121.98 47.09"
/>
<path stroke="#7f7f7f" vector-effect="non-scaling-stroke" d="
  M 87.50 42.84
  Q 90.84 36.88 94.57 31.09
  Q 95.57 29.55 95.31 27.71
  Q 95.23 27.20 94.72 27.20
  L 83.26 27.21
  Q 82.98 27.21 82.98 27.49
  L 83.02 30.10
  Q 83.03 30.47 83.40 30.47
  L 89.93 30.43
  A 0.42 0.41 -74.1 0 1 90.28 31.07
  Q 86.08 37.69 82.74 44.39
  Q 81.56 46.76 84.21 46.77
  L 95.06 46.78
  Q 95.65 46.78 95.65 46.19
  L 95.62 44.07
  Q 95.61 43.53 95.07 43.53
  L 87.94 43.58
  Q 87.09 43.58 87.50 42.84"
/>
<path stroke="#7f7f7f" vector-effect="non-scaling-stroke" d="
  M 107.04 42.88
  L 107.07 31.02
  A 0.63 0.63 0.0 0 1 107.79 30.40
  Q 109.53 30.66 111.25 30.31
  Q 111.34 30.29 111.34 30.20
  L 111.28 27.45
  A 0.26 0.26 0.0 0 0 111.02 27.20
  L 99.33 27.21
  A 0.47 0.47 0.0 0 0 98.86 27.66
  L 98.74 29.96
  Q 98.71 30.46 99.21 30.46
  L 102.26 30.43
  Q 103.09 30.43 103.09 31.26
  L 103.10 42.73
  A 0.82 0.82 0.0 0 1 102.27 43.55
  L 99.11 43.53
  Q 98.74 43.53 98.75 43.90
  L 98.85 46.32
  A 0.47 0.46 -0.6 0 0 99.32 46.77
  L 110.73 46.78
  Q 111.49 46.78 111.46 46.02
  L 111.40 44.41
  Q 111.37 43.60 110.56 43.58
  L 107.64 43.49
  Q 107.04 43.48 107.04 42.88"
/>
<path stroke="#7f7f7f" vector-effect="non-scaling-stroke" d="
  M 57.76 43.77
  L 57.45 43.81
  Q 54.44 44.24 54.45 41.20
  L 54.46 27.71
  Q 54.46 27.21 53.96 27.21
  L 51.00 27.18
  Q 50.41 27.18 50.42 27.77
  Q 50.59 32.95 50.43 38.53
  C 50.25 44.72 52.42 48.18 59.20 46.99
  Q 63.72 46.20 63.87 40.68
  Q 64.04 34.47 63.93 27.60
  Q 63.93 27.22 63.55 27.22
  L 60.43 27.17
  Q 60.02 27.17 60.02 27.57
  L 59.96 41.24
  Q 59.95 43.46 57.76 43.77"
/>
<path stroke="#7f7f7f" vector-effect="non-scaling-stroke" d="
  M 69.78 32.94
  Q 70.52 36.12 71.54 39.33
  Q 71.72 39.90 72.33 39.95
  Q 73.21 40.03 74.05 39.83
  Q 74.64 39.68 74.81 39.10
  Q 75.74 36.03 76.45 32.70
  Q 76.47 32.64 76.53 32.65
  L 76.86 32.70
  Q 76.96 32.71 76.96 32.81
  L 76.78 46.26
  Q 76.77 46.75 77.26 46.76
  L 79.90 46.81
  Q 80.50 46.82 80.46 46.22
  L 79.36 27.75
  Q 79.33 27.18 78.76 27.18
  L 76.61 27.17
  A 0.95 0.95 0.0 0 0 75.69 27.84
  L 73.62 34.40
  Q 73.10 36.06 72.58 34.40
  L 70.54 27.79
  Q 70.37 27.24 69.79 27.24
  L 67.59 27.21
  Q 66.89 27.20 66.86 27.90
  L 65.86 46.44
  Q 65.85 46.80 66.20 46.79
  L 69.27 46.76
  Q 69.55 46.76 69.55 46.48
  L 69.32 33.07
  Q 69.32 32.95 69.43 32.93
  L 69.71 32.89
  Q 69.77 32.88 69.78 32.94"
/>
<path stroke="#68070b" vector-effect="non-scaling-stroke" d="
  M 95.74 56.65
  C 94.40 56.40 93.47 57.39 93.62 58.71
  Q 93.78 60.03 93.94 61.28
  Q 94.01 61.83 94.55 61.88
  L 97.00 62.09
  A 0.73 0.73 0.0 0 0 97.78 61.52
  Q 98.62 57.76 97.37 53.98
  Q 97.13 53.26 96.92 53.99
  L 96.27 56.32
  Q 96.16 56.73 95.74 56.65"
/>
<path stroke="#68070b" vector-effect="non-scaling-stroke" d="
  M 51.95 55.95
  A 0.32 0.31 9.4 0 0 52.24 56.35
  Q 53.37 56.43 53.71 55.53
  Q 53.82 55.24 53.68 54.95
  Q 53.48 54.57 53.09 54.48
  A 0.72 0.72 0.0 0 0 52.25 54.98
  L 51.95 55.95"
/>
<path stroke="#68070b" vector-effect="non-scaling-stroke" d="
  M 36.94 60.55
  Q 36.34 59.29 36.63 57.81
  Q 37.00 55.97 35.61 57.22
  Q 34.34 58.36 35.68 59.44
  Q 35.92 59.62 35.75 59.87
  Q 34.97 61.09 36.52 61.85
  Q 37.39 62.27 40.82 61.86
  Q 41.50 61.78 41.65 61.12
  Q 41.85 60.27 42.65 59.84
  A 0.84 0.84 0.0 0 0 42.94 58.63
  Q 42.63 58.18 43.14 57.97
  A 0.59 0.59 0.0 0 1 43.95 58.60
  Q 43.74 60.10 44.18 61.43
  Q 44.54 62.53 44.81 61.40
  Q 45.26 59.51 44.91 57.58
  Q 44.80 56.95 44.15 56.90
  L 38.86 56.50
  A 0.70 0.70 0.0 0 0 38.11 57.16
  L 37.93 60.74
  Q 37.91 60.97 37.68 60.93
  Q 37.56 60.90 37.41 60.88
  Q 37.09 60.84 36.94 60.55"
/>
<path stroke="#68070b" vector-effect="non-scaling-stroke" d="
  M 49.60 56.45
  Q 48.07 56.96 46.66 56.66
  A 0.48 0.47 4.8 0 0 46.09 57.14
  L 46.09 57.46
  Q 46.11 57.97 46.61 57.90
  Q 47.68 57.74 48.12 58.70
  Q 48.47 59.45 48.98 58.80
  Q 49.74 57.85 49.88 56.67
  A 0.21 0.21 0.0 0 0 49.60 56.45"
/>
<path stroke="#68070b" vector-effect="non-scaling-stroke" d="
  M 58.0786 61.8584
  A 2.76 2.40 101.1 0 0 60.9651 59.6121
  A 2.76 2.40 101.1 0 0 59.1414 56.4416
  A 2.76 2.40 101.1 0 0 56.2549 58.6879
  A 2.76 2.40 101.1 0 0 58.0786 61.8584"
/>
<path stroke="#68070b" vector-effect="non-scaling-stroke" d="
  M 72.86 57.90
  Q 72.36 59.72 72.82 61.76
  A 0.32 0.31 74.5 0 0 73.22 61.99
  L 73.51 61.90
  A 0.80 0.80 0.0 0 0 74.08 61.05
  L 73.83 58.79
  A 0.79 0.79 0.0 0 1 74.60 57.92
  Q 75.31 57.90 75.55 58.47
  Q 75.73 58.89 75.51 59.30
  Q 74.86 60.52 75.53 61.61
  A 0.61 0.60 34.2 0 0 76.64 61.40
  Q 76.98 59.51 76.39 57.41
  A 0.78 0.78 0.0 0 0 75.86 56.88
  Q 74.23 56.37 72.45 56.79
  Q 72.22 56.84 72.40 57.00
  Q 72.50 57.08 72.60 57.15
  Q 72.99 57.44 72.86 57.90"
/>
<path stroke="#68070b" vector-effect="non-scaling-stroke" d="
  M 88.72 59.85
  Q 88.50 60.73 88.62 61.71
  Q 88.66 62.02 88.97 62.00
  L 89.79 61.93
  Q 89.99 61.92 90.00 61.71
  L 90.08 58.17
  A 0.36 0.36 0.0 0 1 90.28 57.85
  L 90.70 57.64
  Q 91.21 57.39 91.21 57.95
  L 91.20 61.58
  Q 91.20 61.84 91.45 61.90
  L 91.73 61.96
  A 0.47 0.46 8.6 0 0 92.30 61.55
  Q 92.37 60.69 92.87 60.03
  Q 93.28 59.50 92.86 58.97
  Q 92.17 58.12 92.08 57.07
  A 0.71 0.71 0.0 0 0 91.28 56.42
  L 89.17 56.69
  Q 88.65 56.76 88.62 57.28
  Q 88.56 58.05 88.74 58.81
  Q 88.86 59.33 88.72 59.85"
/>
<path stroke="#68070b" vector-effect="non-scaling-stroke" d="
  M 106.09 58.79
  Q 106.03 57.90 106.91 58.05
  Q 107.80 58.20 108.37 57.63
  Q 108.74 57.27 108.29 57.01
  Q 106.75 56.13 105.17 56.92
  Q 104.61 57.19 104.63 57.81
  L 104.70 61.31
  Q 104.71 61.91 105.31 61.84
  L 105.66 61.79
  A 0.66 0.65 -5.6 0 0 106.23 61.10
  L 106.09 58.79"
/>
<path stroke="#68070b" vector-effect="non-scaling-stroke" d="
  M 125.81 60.08
  A 0.56 0.56 0.0 0 1 124.88 59.68
  Q 124.87 59.16 124.40 58.98
  Q 123.69 58.71 123.44 59.43
  L 123.24 60.00
  Q 122.83 61.16 121.90 60.37
  Q 121.03 59.64 121.11 58.61
  Q 121.15 58.14 121.61 58.05
  Q 122.75 57.84 123.71 58.12
  Q 124.05 58.23 124.04 57.87
  L 124.04 57.58
  A 0.67 0.66 -87.5 0 0 123.46 56.94
  Q 120.02 56.46 117.18 56.71
  Q 115.27 56.87 114.68 58.71
  Q 114.50 59.27 114.80 59.77
  Q 116.34 62.36 119.03 61.94
  Q 120.11 61.77 119.18 61.20
  Q 118.43 60.73 117.48 60.56
  Q 116.21 60.33 116.12 59.14
  A 1.10 1.10 0.0 0 1 117.18 57.96
  Q 118.50 57.92 119.79 57.29
  Q 120.93 56.73 120.41 57.89
  Q 119.72 59.45 121.00 61.45
  Q 121.29 61.90 121.82 61.95
  Q 123.18 62.09 124.36 61.11
  Q 124.74 60.80 125.08 61.15
  Q 125.94 62.03 127.02 61.48
  Q 127.91 61.03 126.92 61.16
  Q 126.73 61.19 126.57 61.07
  Q 126.07 60.72 126.64 60.51
  Q 127.85 60.06 128.19 58.79
  Q 128.43 57.92 128.79 58.74
  Q 129.33 59.96 128.91 61.49
  Q 128.90 61.55 128.95 61.58
  L 129.37 61.81
  A 0.45 0.45 0.0 0 0 130.02 61.51
  Q 130.49 59.47 130.14 57.69
  A 1.11 1.11 0.0 0 0 128.99 56.79
  L 126.18 56.91
  A 0.55 0.54 65.6 0 0 125.83 57.85
  Q 127.04 59.03 125.81 60.08"
/>
<path stroke="#68070b" vector-effect="non-scaling-stroke" d="
  M 32.06 58.74
  Q 32.18 58.63 32.05 58.44
  Q 31.87 58.16 32.19 58.10
  Q 33.20 57.91 33.80 57.21
  Q 34.32 56.60 33.52 56.65
  L 31.05 56.79
  Q 30.43 56.83 30.12 57.38
  C 29.73 58.08 30.05 58.85 30.76 59.16
  Q 31.66 59.55 32.44 60.16
  Q 32.92 60.55 32.41 60.90
  Q 31.81 61.31 31.16 60.99
  Q 30.77 60.79 30.55 61.17
  Q 30.45 61.34 30.46 61.58
  Q 30.47 62.17 31.05 62.20
  Q 32.32 62.27 33.57 61.77
  A 1.13 1.13 0.0 0 0 34.09 60.08
  Q 33.36 59.01 32.08 58.82
  A 0.05 0.05 0.0 0 1 32.06 58.74"
/>
<path stroke="#68070b" vector-effect="non-scaling-stroke" d="
  M 53.90 59.68
  L 53.84 57.62
  Q 53.82 57.11 53.37 56.88
  Q 52.68 56.53 51.94 56.89
  Q 51.22 57.23 51.82 57.76
  Q 52.78 58.61 52.54 60.06
  Q 52.42 60.74 52.81 61.32
  Q 53.54 62.41 55.24 61.97
  Q 55.91 61.80 55.36 61.37
  L 54.37 60.61
  A 1.26 1.24 18.6 0 1 53.90 59.68"
/>
<path stroke="#68070b" vector-effect="non-scaling-stroke" d="
  M 70.0284 61.7456
  A 2.63 2.44 74.6 0 0 71.6824 58.5620
  A 2.63 2.44 74.6 0 0 68.6316 56.6744
  A 2.63 2.44 74.6 0 0 66.9776 59.8580
  A 2.63 2.44 74.6 0 0 70.0284 61.7456"
/>
<path stroke="#68070b" vector-effect="non-scaling-stroke" d="
  M 78.20 57.66
  Q 77.98 59.73 78.27 61.40
  Q 78.49 62.67 79.19 61.59
  Q 79.88 60.53 79.41 59.38
  A 1.03 1.03 0.0 0 1 80.61 58.00
  Q 81.33 58.18 81.84 57.77
  Q 82.58 57.17 81.68 56.85
  Q 80.30 56.36 78.88 56.83
  Q 78.27 57.03 78.20 57.66"
/>
<path stroke="#68070b" vector-effect="non-scaling-stroke" d="
  M 83.40 61.37
  L 85.86 62.02
  A 0.91 0.91 0.0 0 0 86.97 61.37
  L 87.46 59.50
  A 2.36 1.79 -75.3 0 0 86.33 56.76
  L 85.57 56.57
  A 2.36 1.79 -75.3 0 0 83.24 58.39
  L 82.75 60.26
  A 0.91 0.91 0.0 0 0 83.40 61.37"
/>
<path stroke="#68070b" vector-effect="non-scaling-stroke" d="
  M 102.95 61.33
  L 103.50 57.90
  A 0.91 0.91 0.0 0 0 102.74 56.86
  L 101.61 56.67
  A 2.46 2.32 -80.9 0 0 98.93 58.74
  L 98.87 59.11
  A 2.46 2.32 -80.9 0 0 100.77 61.91
  L 101.90 62.09
  A 0.91 0.91 0.0 0 0 102.95 61.33"
/>
<path stroke="#68070b" vector-effect="non-scaling-stroke" d="
  M 48.07 59.85
  Q 48.19 59.43 47.78 59.33
  Q 47.50 59.26 47.24 59.41
  Q 46.04 60.07 46.06 61.25
  Q 46.08 61.80 46.63 61.83
  L 49.15 61.96
  A 0.67 0.62 23.8 0 0 49.64 61.79
  Q 49.91 61.54 49.95 61.17
  A 0.61 0.61 0.0 0 0 49.37 60.49
  L 48.50 60.44
  Q 47.92 60.41 48.07 59.85"
/>
<path stroke="#7f7f7f" vector-effect="non-scaling-stroke" d="
  M 64.99 61.33
  Q 65.02 60.95 64.91 60.59
  Q 64.68 59.85 63.84 60.01
  Q 63.34 60.11 63.06 60.57
  A 0.88 0.87 16.6 0 0 63.78 61.90
  L 64.33 61.92
  A 0.65 0.64 2.8 0 0 64.99 61.33"
/>
<path stroke="#7f7f7f" vector-effect="non-scaling-stroke" d="
  M 112.6159 61.6994
  A 1.03 0.94 47.5 0 0 112.6130 60.3049
  A 1.03 0.94 47.5 0 0 111.2241 60.1806
  A 1.03 0.94 47.5 0 0 111.2270 61.5751
  A 1.03 0.94 47.5 0 0 112.6159 61.6994"
/>
<path stroke="#7f7f7f" vector-effect="non-scaling-stroke" d="
  M 120.9777 44.0300
  A 7.07 3.27 90.1 0 0 124.2600 36.9657
  A 7.07 3.27 90.1 0 0 121.0023 29.8900
  A 7.07 3.27 90.1 0 0 117.7200 36.9543
  A 7.07 3.27 90.1 0 0 120.9777 44.0300"
/>
<path stroke="#94080b" vector-effect="non-scaling-stroke" d="
  M 96.59 59.46
  Q 96.83 58.83 96.51 58.30
  A 0.82 0.81 -51.8 0 0 95.04 58.48
  Q 94.67 59.64 95.32 60.75
  A 0.63 0.62 -31.9 0 0 96.20 60.95
  Q 96.85 60.52 96.61 59.99
  A 0.69 0.69 0.0 0 1 96.59 59.46"
/>
<path stroke="#94080b" vector-effect="non-scaling-stroke" d="
  M 40.58 59.91
  Q 40.44 59.91 40.33 59.85
  Q 40.23 59.78 40.21 59.61
  Q 40.09 58.62 40.51 57.72
  Q 40.76 57.17 40.22 56.89
  L 39.84 56.68
  A 0.52 0.52 0.0 0 0 39.08 57.12
  Q 38.99 58.86 38.95 60.69
  Q 38.95 61.05 39.21 61.29
  Q 39.45 61.51 39.77 61.44
  Q 40.31 61.32 40.53 60.82
  Q 40.70 60.43 41.11 60.34
  Q 41.59 60.22 41.81 59.77
  L 42.44 58.48
  Q 42.62 58.11 42.23 58.01
  L 41.80 57.89
  A 0.57 0.56 23.9 0 0 41.19 58.12
  Q 40.66 58.93 40.64 59.84
  Q 40.64 59.90 40.58 59.91"
/>
<path stroke="#68070b" vector-effect="non-scaling-stroke" d="
  M 58.35 60.59
  Q 60.12 60.25 60.10 58.81
  Q 60.10 58.23 59.48 57.86
  Q 59.00 57.57 58.53 57.73
  Q 57.97 57.92 57.85 58.60
  Q 57.69 59.47 57.81 60.21
  A 0.46 0.46 0.0 0 0 58.35 60.59"
/>
<path stroke="#68070b" vector-effect="non-scaling-stroke" d="
  M 69.8587 60.5189
  A 1.41 1.24 67.1 0 0 70.4523 58.7375
  A 1.41 1.24 67.1 0 0 68.7613 57.9211
  A 1.41 1.24 67.1 0 0 68.1677 59.7025
  A 1.41 1.24 67.1 0 0 69.8587 60.5189"
/>
<path stroke="#94080b" vector-effect="non-scaling-stroke" d="
  M 84.48 58.82
  Q 84.78 59.58 84.51 60.40
  A 0.48 0.47 4.2 0 0 85.04 61.01
  L 85.92 60.88
  Q 86.48 60.79 86.38 60.23
  L 86.03 58.42
  A 0.70 0.70 0.0 0 0 85.17 57.88
  L 84.92 57.95
  Q 84.21 58.13 84.48 58.82"
/>
<path stroke="#94080b" vector-effect="non-scaling-stroke" d="
  M 100.51 60.05
  Q 100.21 60.07 100.34 60.50
  A 0.53 0.52 81.5 0 0 100.86 60.89
  L 101.63 60.87
  Q 102.21 60.86 102.21 60.29
  Q 102.23 58.45 100.77 57.95
  Q 99.83 57.64 100.21 58.56
  L 100.69 59.75
  A 0.22 0.22 0.0 0 1 100.51 60.05"
/>
</g>
<path fill="#000000" d="
  M 0.00 0.00
  L 160.00 0.00
  L 160.00 79.00
  L 0.00 79.00
  L 0.00 0.00
  Z
  M 39.79 33.96
  A 1.93 1.93 0.0 0 1 39.14 31.06
  C 40.50 29.29 43.78 30.08 45.45 30.90
  Q 45.80 31.07 45.95 30.72
  L 46.93 28.51
  A 0.44 0.43 -65.5 0 0 46.72 27.93
  C 43.09 26.20 36.61 25.86 35.17 30.58
  C 32.44 39.55 45.84 37.04 43.75 42.60
  Q 43.53 43.18 42.97 43.42
  Q 39.76 44.84 36.40 42.80
  Q 35.75 42.40 35.48 43.12
  L 34.71 45.19
  Q 34.48 45.81 35.08 46.08
  Q 39.07 47.86 43.72 46.85
  C 46.97 46.15 48.51 43.12 47.80 40.03
  C 46.88 36.09 42.88 35.55 39.79 33.96
  Z
  M 121.98 47.09
  C 128.68 46.24 128.66 37.34 127.59 32.27
  C 126.95 29.29 124.72 26.94 121.56 26.77
  C 117.08 26.54 114.65 29.80 114.13 33.88
  C 113.39 39.56 114.18 48.08 121.98 47.09
  Z
  M 87.50 42.84
  Q 90.84 36.88 94.57 31.09
  Q 95.57 29.55 95.31 27.71
  Q 95.23 27.20 94.72 27.20
  L 83.26 27.21
  Q 82.98 27.21 82.98 27.49
  L 83.02 30.10
  Q 83.03 30.47 83.40 30.47
  L 89.93 30.43
  A 0.42 0.41 -74.1 0 1 90.28 31.07
  Q 86.08 37.69 82.74 44.39
  Q 81.56 46.76 84.21 46.77
  L 95.06 46.78
  Q 95.65 46.78 95.65 46.19
  L 95.62 44.07
  Q 95.61 43.53 95.07 43.53
  L 87.94 43.58
  Q 87.09 43.58 87.50 42.84
  Z
  M 107.04 42.88
  L 107.07 31.02
  A 0.63 0.63 0.0 0 1 107.79 30.40
  Q 109.53 30.66 111.25 30.31
  Q 111.34 30.29 111.34 30.20
  L 111.28 27.45
  A 0.26 0.26 0.0 0 0 111.02 27.20
  L 99.33 27.21
  A 0.47 0.47 0.0 0 0 98.86 27.66
  L 98.74 29.96
  Q 98.71 30.46 99.21 30.46
  L 102.26 30.43
  Q 103.09 30.43 103.09 31.26
  L 103.10 42.73
  A 0.82 0.82 0.0 0 1 102.27 43.55
  L 99.11 43.53
  Q 98.74 43.53 98.75 43.90
  L 98.85 46.32
  A 0.47 0.46 -0.6 0 0 99.32 46.77
  L 110.73 46.78
  Q 111.49 46.78 111.46 46.02
  L 111.40 44.41
  Q 111.37 43.60 110.56 43.58
  L 107.64 43.49
  Q 107.04 43.48 107.04 42.88
  Z
  M 57.76 43.77
  L 57.45 43.81
  Q 54.44 44.24 54.45 41.20
  L 54.46 27.71
  Q 54.46 27.21 53.96 27.21
  L 51.00 27.18
  Q 50.41 27.18 50.42 27.77
  Q 50.59 32.95 50.43 38.53
  C 50.25 44.72 52.42 48.18 59.20 46.99
  Q 63.72 46.20 63.87 40.68
  Q 64.04 34.47 63.93 27.60
  Q 63.93 27.22 63.55 27.22
  L 60.43 27.17
  Q 60.02 27.17 60.02 27.57
  L 59.96 41.24
  Q 59.95 43.46 57.76 43.77
  Z
  M 69.78 32.94
  Q 70.52 36.12 71.54 39.33
  Q 71.72 39.90 72.33 39.95
  Q 73.21 40.03 74.05 39.83
  Q 74.64 39.68 74.81 39.10
  Q 75.74 36.03 76.45 32.70
  Q 76.47 32.64 76.53 32.65
  L 76.86 32.70
  Q 76.96 32.71 76.96 32.81
  L 76.78 46.26
  Q 76.77 46.75 77.26 46.76
  L 79.90 46.81
  Q 80.50 46.82 80.46 46.22
  L 79.36 27.75
  Q 79.33 27.18 78.76 27.18
  L 76.61 27.17
  A 0.95 0.95 0.0 0 0 75.69 27.84
  L 73.62 34.40
  Q 73.10 36.06 72.58 34.40
  L 70.54 27.79
  Q 70.37 27.24 69.79 27.24
  L 67.59 27.21
  Q 66.89 27.20 66.86 27.90
  L 65.86 46.44
  Q 65.85 46.80 66.20 46.79
  L 69.27 46.76
  Q 69.55 46.76 69.55 46.48
  L 69.32 33.07
  Q 69.32 32.95 69.43 32.93
  L 69.71 32.89
  Q 69.77 32.88 69.78 32.94
  Z
  M 95.74 56.65
  C 94.40 56.40 93.47 57.39 93.62 58.71
  Q 93.78 60.03 93.94 61.28
  Q 94.01 61.83 94.55 61.88
  L 97.00 62.09
  A 0.73 0.73 0.0 0 0 97.78 61.52
  Q 98.62 57.76 97.37 53.98
  Q 97.13 53.26 96.92 53.99
  L 96.27 56.32
  Q 96.16 56.73 95.74 56.65
  Z
  M 51.95 55.95
  A 0.32 0.31 9.4 0 0 52.24 56.35
  Q 53.37 56.43 53.71 55.53
  Q 53.82 55.24 53.68 54.95
  Q 53.48 54.57 53.09 54.48
  A 0.72 0.72 0.0 0 0 52.25 54.98
  L 51.95 55.95
  Z
  M 36.94 60.55
  Q 36.34 59.29 36.63 57.81
  Q 37.00 55.97 35.61 57.22
  Q 34.34 58.36 35.68 59.44
  Q 35.92 59.62 35.75 59.87
  Q 34.97 61.09 36.52 61.85
  Q 37.39 62.27 40.82 61.86
  Q 41.50 61.78 41.65 61.12
  Q 41.85 60.27 42.65 59.84
  A 0.84 0.84 0.0 0 0 42.94 58.63
  Q 42.63 58.18 43.14 57.97
  A 0.59 0.59 0.0 0 1 43.95 58.60
  Q 43.74 60.10 44.18 61.43
  Q 44.54 62.53 44.81 61.40
  Q 45.26 59.51 44.91 57.58
  Q 44.80 56.95 44.15 56.90
  L 38.86 56.50
  A 0.70 0.70 0.0 0 0 38.11 57.16
  L 37.93 60.74
  Q 37.91 60.97 37.68 60.93
  Q 37.56 60.90 37.41 60.88
  Q 37.09 60.84 36.94 60.55
  Z
  M 49.60 56.45
  Q 48.07 56.96 46.66 56.66
  A 0.48 0.47 4.8 0 0 46.09 57.14
  L 46.09 57.46
  Q 46.11 57.97 46.61 57.90
  Q 47.68 57.74 48.12 58.70
  Q 48.47 59.45 48.98 58.80
  Q 49.74 57.85 49.88 56.67
  A 0.21 0.21 0.0 0 0 49.60 56.45
  Z
  M 58.0786 61.8584
  A 2.76 2.40 101.1 0 0 60.9651 59.6121
  A 2.76 2.40 101.1 0 0 59.1414 56.4416
  A 2.76 2.40 101.1 0 0 56.2549 58.6879
  A 2.76 2.40 101.1 0 0 58.0786 61.8584
  Z
  M 72.86 57.90
  Q 72.36 59.72 72.82 61.76
  A 0.32 0.31 74.5 0 0 73.22 61.99
  L 73.51 61.90
  A 0.80 0.80 0.0 0 0 74.08 61.05
  L 73.83 58.79
  A 0.79 0.79 0.0 0 1 74.60 57.92
  Q 75.31 57.90 75.55 58.47
  Q 75.73 58.89 75.51 59.30
  Q 74.86 60.52 75.53 61.61
  A 0.61 0.60 34.2 0 0 76.64 61.40
  Q 76.98 59.51 76.39 57.41
  A 0.78 0.78 0.0 0 0 75.86 56.88
  Q 74.23 56.37 72.45 56.79
  Q 72.22 56.84 72.40 57.00
  Q 72.50 57.08 72.60 57.15
  Q 72.99 57.44 72.86 57.90
  Z
  M 88.72 59.85
  Q 88.50 60.73 88.62 61.71
  Q 88.66 62.02 88.97 62.00
  L 89.79 61.93
  Q 89.99 61.92 90.00 61.71
  L 90.08 58.17
  A 0.36 0.36 0.0 0 1 90.28 57.85
  L 90.70 57.64
  Q 91.21 57.39 91.21 57.95
  L 91.20 61.58
  Q 91.20 61.84 91.45 61.90
  L 91.73 61.96
  A 0.47 0.46 8.6 0 0 92.30 61.55
  Q 92.37 60.69 92.87 60.03
  Q 93.28 59.50 92.86 58.97
  Q 92.17 58.12 92.08 57.07
  A 0.71 0.71 0.0 0 0 91.28 56.42
  L 89.17 56.69
  Q 88.65 56.76 88.62 57.28
  Q 88.56 58.05 88.74 58.81
  Q 88.86 59.33 88.72 59.85
  Z
  M 106.09 58.79
  Q 106.03 57.90 106.91 58.05
  Q 107.80 58.20 108.37 57.63
  Q 108.74 57.27 108.29 57.01
  Q 106.75 56.13 105.17 56.92
  Q 104.61 57.19 104.63 57.81
  L 104.70 61.31
  Q 104.71 61.91 105.31 61.84
  L 105.66 61.79
  A 0.66 0.65 -5.6 0 0 106.23 61.10
  L 106.09 58.79
  Z
  M 125.81 60.08
  A 0.56 0.56 0.0 0 1 124.88 59.68
  Q 124.87 59.16 124.40 58.98
  Q 123.69 58.71 123.44 59.43
  L 123.24 60.00
  Q 122.83 61.16 121.90 60.37
  Q 121.03 59.64 121.11 58.61
  Q 121.15 58.14 121.61 58.05
  Q 122.75 57.84 123.71 58.12
  Q 124.05 58.23 124.04 57.87
  L 124.04 57.58
  A 0.67 0.66 -87.5 0 0 123.46 56.94
  Q 120.02 56.46 117.18 56.71
  Q 115.27 56.87 114.68 58.71
  Q 114.50 59.27 114.80 59.77
  Q 116.34 62.36 119.03 61.94
  Q 120.11 61.77 119.18 61.20
  Q 118.43 60.73 117.48 60.56
  Q 116.21 60.33 116.12 59.14
  A 1.10 1.10 0.0 0 1 117.18 57.96
  Q 118.50 57.92 119.79 57.29
  Q 120.93 56.73 120.41 57.89
  Q 119.72 59.45 121.00 61.45
  Q 121.29 61.90 121.82 61.95
  Q 123.18 62.09 124.36 61.11
  Q 124.74 60.80 125.08 61.15
  Q 125.94 62.03 127.02 61.48
  Q 127.91 61.03 126.92 61.16
  Q 126.73 61.19 126.57 61.07
  Q 126.07 60.72 126.64 60.51
  Q 127.85 60.06 128.19 58.79
  Q 128.43 57.92 128.79 58.74
  Q 129.33 59.96 128.91 61.49
  Q 128.90 61.55 128.95 61.58
  L 129.37 61.81
  A 0.45 0.45 0.0 0 0 130.02 61.51
  Q 130.49 59.47 130.14 57.69
  A 1.11 1.11 0.0 0 0 128.99 56.79
  L 126.18 56.91
  A 0.55 0.54 65.6 0 0 125.83 57.85
  Q 127.04 59.03 125.81 60.08
  Z
  M 32.06 58.74
  Q 32.18 58.63 32.05 58.44
  Q 31.87 58.16 32.19 58.10
  Q 33.20 57.91 33.80 57.21
  Q 34.32 56.60 33.52 56.65
  L 31.05 56.79
  Q 30.43 56.83 30.12 57.38
  C 29.73 58.08 30.05 58.85 30.76 59.16
  Q 31.66 59.55 32.44 60.16
  Q 32.92 60.55 32.41 60.90
  Q 31.81 61.31 31.16 60.99
  Q 30.77 60.79 30.55 61.17
  Q 30.45 61.34 30.46 61.58
  Q 30.47 62.17 31.05 62.20
  Q 32.32 62.27 33.57 61.77
  A 1.13 1.13 0.0 0 0 34.09 60.08
  Q 33.36 59.01 32.08 58.82
  A 0.05 0.05 0.0 0 1 32.06 58.74
  Z
  M 53.90 59.68
  L 53.84 57.62
  Q 53.82 57.11 53.37 56.88
  Q 52.68 56.53 51.94 56.89
  Q 51.22 57.23 51.82 57.76
  Q 52.78 58.61 52.54 60.06
  Q 52.42 60.74 52.81 61.32
  Q 53.54 62.41 55.24 61.97
  Q 55.91 61.80 55.36 61.37
  L 54.37 60.61
  A 1.26 1.24 18.6 0 1 53.90 59.68
  Z
  M 70.0284 61.7456
  A 2.63 2.44 74.6 0 0 71.6824 58.5620
  A 2.63 2.44 74.6 0 0 68.6316 56.6744
  A 2.63 2.44 74.6 0 0 66.9776 59.8580
  A 2.63 2.44 74.6 0 0 70.0284 61.7456
  Z
  M 78.20 57.66
  Q 77.98 59.73 78.27 61.40
  Q 78.49 62.67 79.19 61.59
  Q 79.88 60.53 79.41 59.38
  A 1.03 1.03 0.0 0 1 80.61 58.00
  Q 81.33 58.18 81.84 57.77
  Q 82.58 57.17 81.68 56.85
  Q 80.30 56.36 78.88 56.83
  Q 78.27 57.03 78.20 57.66
  Z
  M 83.40 61.37
  L 85.86 62.02
  A 0.91 0.91 0.0 0 0 86.97 61.37
  L 87.46 59.50
  A 2.36 1.79 -75.3 0 0 86.33 56.76
  L 85.57 56.57
  A 2.36 1.79 -75.3 0 0 83.24 58.39
  L 82.75 60.26
  A 0.91 0.91 0.0 0 0 83.40 61.37
  Z
  M 102.95 61.33
  L 103.50 57.90
  A 0.91 0.91 0.0 0 0 102.74 56.86
  L 101.61 56.67
  A 2.46 2.32 -80.9 0 0 98.93 58.74
  L 98.87 59.11
  A 2.46 2.32 -80.9 0 0 100.77 61.91
  L 101.90 62.09
  A 0.91 0.91 0.0 0 0 102.95 61.33
  Z
  M 48.07 59.85
  Q 48.19 59.43 47.78 59.33
  Q 47.50 59.26 47.24 59.41
  Q 46.04 60.07 46.06 61.25
  Q 46.08 61.80 46.63 61.83
  L 49.15 61.96
  A 0.67 0.62 23.8 0 0 49.64 61.79
  Q 49.91 61.54 49.95 61.17
  A 0.61 0.61 0.0 0 0 49.37 60.49
  L 48.50 60.44
  Q 47.92 60.41 48.07 59.85
  Z
  M 64.99 61.33
  Q 65.02 60.95 64.91 60.59
  Q 64.68 59.85 63.84 60.01
  Q 63.34 60.11 63.06 60.57
  A 0.88 0.87 16.6 0 0 63.78 61.90
  L 64.33 61.92
  A 0.65 0.64 2.8 0 0 64.99 61.33
  Z
  M 112.6159 61.6994
  A 1.03 0.94 47.5 0 0 112.6130 60.3049
  A 1.03 0.94 47.5 0 0 111.2241 60.1806
  A 1.03 0.94 47.5 0 0 111.2270 61.5751
  A 1.03 0.94 47.5 0 0 112.6159 61.6994
  Z"
/>
<path fill="#fefefe" d="
  M 39.79 33.96
  C 42.88 35.55 46.88 36.09 47.80 40.03
  C 48.51 43.12 46.97 46.15 43.72 46.85
  Q 39.07 47.86 35.08 46.08
  Q 34.48 45.81 34.71 45.19
  L 35.48 43.12
  Q 35.75 42.40 36.40 42.80
  Q 39.76 44.84 42.97 43.42
  Q 43.53 43.18 43.75 42.60
  C 45.84 37.04 32.44 39.55 35.17 30.58
  C 36.61 25.86 43.09 26.20 46.72 27.93
  A 0.44 0.43 -65.5 0 1 46.93 28.51
  L 45.95 30.72
  Q 45.80 31.07 45.45 30.90
  C 43.78 30.08 40.50 29.29 39.14 31.06
  A 1.93 1.93 0.0 0 0 39.79 33.96
  Z"
/>
<path fill="#fefefe" d="
  M 121.98 47.09
  C 114.18 48.08 113.39 39.56 114.13 33.88
  C 114.65 29.80 117.08 26.54 121.56 26.77
  C 124.72 26.94 126.95 29.29 127.59 32.27
  C 128.66 37.34 128.68 46.24 121.98 47.09
  Z
  M 120.9777 44.0300
  A 7.07 3.27 90.1 0 0 124.2600 36.9657
  A 7.07 3.27 90.1 0 0 121.0023 29.8900
  A 7.07 3.27 90.1 0 0 117.7200 36.9543
  A 7.07 3.27 90.1 0 0 120.9777 44.0300
  Z"
/>
<path fill="#fefefe" d="
  M 87.94 43.58
  L 95.07 43.53
  Q 95.61 43.53 95.62 44.07
  L 95.65 46.19
  Q 95.65 46.78 95.06 46.78
  L 84.21 46.77
  Q 81.56 46.76 82.74 44.39
  Q 86.08 37.69 90.28 31.07
  A 0.42 0.41 -74.1 0 0 89.93 30.43
  L 83.40 30.47
  Q 83.03 30.47 83.02 30.10
  L 82.98 27.49
  Q 82.98 27.21 83.26 27.21
  L 94.72 27.20
  Q 95.23 27.20 95.31 27.71
  Q 95.57 29.55 94.57 31.09
  Q 90.84 36.88 87.50 42.84
  Q 87.09 43.58 87.94 43.58
  Z"
/>
<path fill="#fefefe" d="
  M 107.64 43.49
  L 110.56 43.58
  Q 111.37 43.60 111.40 44.41
  L 111.46 46.02
  Q 111.49 46.78 110.73 46.78
  L 99.32 46.77
  A 0.47 0.46 -0.6 0 1 98.85 46.32
  L 98.75 43.90
  Q 98.74 43.53 99.11 43.53
  L 102.27 43.55
  A 0.82 0.82 0.0 0 0 103.10 42.73
  L 103.09 31.26
  Q 103.09 30.43 102.26 30.43
  L 99.21 30.46
  Q 98.71 30.46 98.74 29.96
  L 98.86 27.66
  A 0.47 0.47 0.0 0 1 99.33 27.21
  L 111.02 27.20
  A 0.26 0.26 0.0 0 1 111.28 27.45
  L 111.34 30.20
  Q 111.34 30.29 111.25 30.31
  Q 109.53 30.66 107.79 30.40
  A 0.63 0.63 0.0 0 0 107.07 31.02
  L 107.04 42.88
  Q 107.04 43.48 107.64 43.49
  Z"
/>
<path fill="#fefefe" d="
  M 57.76 43.77
  Q 59.95 43.46 59.96 41.24
  L 60.02 27.57
  Q 60.02 27.17 60.43 27.17
  L 63.55 27.22
  Q 63.93 27.22 63.93 27.60
  Q 64.04 34.47 63.87 40.68
  Q 63.72 46.20 59.20 46.99
  C 52.42 48.18 50.25 44.72 50.43 38.53
  Q 50.59 32.95 50.42 27.77
  Q 50.41 27.18 51.00 27.18
  L 53.96 27.21
  Q 54.46 27.21 54.46 27.71
  L 54.45 41.20
  Q 54.44 44.24 57.45 43.81
  L 57.76 43.77
  Z"
/>
<path fill="#fefefe" d="
  M 69.78 32.94
  Q 69.77 32.88 69.71 32.89
  L 69.43 32.93
  Q 69.32 32.95 69.32 33.07
  L 69.55 46.48
  Q 69.55 46.76 69.27 46.76
  L 66.20 46.79
  Q 65.85 46.80 65.86 46.44
  L 66.86 27.90
  Q 66.89 27.20 67.59 27.21
  L 69.79 27.24
  Q 70.37 27.24 70.54 27.79
  L 72.58 34.40
  Q 73.10 36.06 73.62 34.40
  L 75.69 27.84
  A 0.95 0.95 0.0 0 1 76.61 27.17
  L 78.76 27.18
  Q 79.33 27.18 79.36 27.75
  L 80.46 46.22
  Q 80.50 46.82 79.90 46.81
  L 77.26 46.76
  Q 76.77 46.75 76.78 46.26
  L 76.96 32.81
  Q 76.96 32.71 76.86 32.70
  L 76.53 32.65
  Q 76.47 32.64 76.45 32.70
  Q 75.74 36.03 74.81 39.10
  Q 74.64 39.68 74.05 39.83
  Q 73.21 40.03 72.33 39.95
  Q 71.72 39.90 71.54 39.33
  Q 70.52 36.12 69.78 32.94
  Z"
/>
<ellipse fill="#000000" cx="0.00" cy="0.00" transform="translate(120.99,36.96) rotate(90.1)" rx="7.07" ry="3.27"/>
<path fill="#d00e15" d="
  M 96.27 56.32
  L 96.92 53.99
  Q 97.13 53.26 97.37 53.98
  Q 98.62 57.76 97.78 61.52
  A 0.73 0.73 0.0 0 1 97.00 62.09
  L 94.55 61.88
  Q 94.01 61.83 93.94 61.28
  Q 93.78 60.03 93.62 58.71
  C 93.47 57.39 94.40 56.40 95.74 56.65
  Q 96.16 56.73 96.27 56.32
  Z
  M 96.59 59.46
  Q 96.83 58.83 96.51 58.30
  A 0.82 0.81 -51.8 0 0 95.04 58.48
  Q 94.67 59.64 95.32 60.75
  A 0.63 0.62 -31.9 0 0 96.20 60.95
  Q 96.85 60.52 96.61 59.99
  A 0.69 0.69 0.0 0 1 96.59 59.46
  Z"
/>
<path fill="#d00e15" d="
  M 51.95 55.95
  L 52.25 54.98
  A 0.72 0.72 0.0 0 1 53.09 54.48
  Q 53.48 54.57 53.68 54.95
  Q 53.82 55.24 53.71 55.53
  Q 53.37 56.43 52.24 56.35
  A 0.32 0.31 9.4 0 1 51.95 55.95
  Z"
/>
<path fill="#d00e15" d="
  M 37.41 60.88
  Q 37.56 60.90 37.68 60.93
  Q 37.91 60.97 37.93 60.74
  L 38.11 57.16
  A 0.70 0.70 0.0 0 1 38.86 56.50
  L 44.15 56.90
  Q 44.80 56.95 44.91 57.58
  Q 45.26 59.51 44.81 61.40
  Q 44.54 62.53 44.18 61.43
  Q 43.74 60.10 43.95 58.60
  A 0.59 0.59 0.0 0 0 43.14 57.97
  Q 42.63 58.18 42.94 58.63
  A 0.84 0.84 0.0 0 1 42.65 59.84
  Q 41.85 60.27 41.65 61.12
  Q 41.50 61.78 40.82 61.86
  Q 37.39 62.27 36.52 61.85
  Q 34.97 61.09 35.75 59.87
  Q 35.92 59.62 35.68 59.44
  Q 34.34 58.36 35.61 57.22
  Q 37.00 55.97 36.63 57.81
  Q 36.34 59.29 36.94 60.55
  Q 37.09 60.84 37.41 60.88
  Z
  M 40.58 59.91
  Q 40.44 59.91 40.33 59.85
  Q 40.23 59.78 40.21 59.61
  Q 40.09 58.62 40.51 57.72
  Q 40.76 57.17 40.22 56.89
  L 39.84 56.68
  A 0.52 0.52 0.0 0 0 39.08 57.12
  Q 38.99 58.86 38.95 60.69
  Q 38.95 61.05 39.21 61.29
  Q 39.45 61.51 39.77 61.44
  Q 40.31 61.32 40.53 60.82
  Q 40.70 60.43 41.11 60.34
  Q 41.59 60.22 41.81 59.77
  L 42.44 58.48
  Q 42.62 58.11 42.23 58.01
  L 41.80 57.89
  A 0.57 0.56 23.9 0 0 41.19 58.12
  Q 40.66 58.93 40.64 59.84
  Q 40.64 59.90 40.58 59.91
  Z"
/>
<path fill="#d00e15" d="
  M 49.60 56.45
  A 0.21 0.21 0.0 0 1 49.88 56.67
  Q 49.74 57.85 48.98 58.80
  Q 48.47 59.45 48.12 58.70
  Q 47.68 57.74 46.61 57.90
  Q 46.11 57.97 46.09 57.46
  L 46.09 57.14
  A 0.48 0.47 4.8 0 1 46.66 56.66
  Q 48.07 56.96 49.60 56.45
  Z"
/>
<path fill="#d00e15" d="
  M 58.0786 61.8584
  A 2.76 2.40 101.1 0 1 56.2549 58.6879
  A 2.76 2.40 101.1 0 1 59.1414 56.4416
  A 2.76 2.40 101.1 0 1 60.9651 59.6121
  A 2.76 2.40 101.1 0 1 58.0786 61.8584
  Z
  M 58.35 60.59
  Q 60.12 60.25 60.10 58.81
  Q 60.10 58.23 59.48 57.86
  Q 59.00 57.57 58.53 57.73
  Q 57.97 57.92 57.85 58.60
  Q 57.69 59.47 57.81 60.21
  A 0.46 0.46 0.0 0 0 58.35 60.59
  Z"
/>
<path fill="#d00e15" d="
  M 72.60 57.15
  Q 72.50 57.08 72.40 57.00
  Q 72.22 56.84 72.45 56.79
  Q 74.23 56.37 75.86 56.88
  A 0.78 0.78 0.0 0 1 76.39 57.41
  Q 76.98 59.51 76.64 61.40
  A 0.61 0.60 34.2 0 1 75.53 61.61
  Q 74.86 60.52 75.51 59.30
  Q 75.73 58.89 75.55 58.47
  Q 75.31 57.90 74.60 57.92
  A 0.79 0.79 0.0 0 0 73.83 58.79
  L 74.08 61.05
  A 0.80 0.80 0.0 0 1 73.51 61.90
  L 73.22 61.99
  A 0.32 0.31 74.5 0 1 72.82 61.76
  Q 72.36 59.72 72.86 57.90
  Q 72.99 57.44 72.60 57.15
  Z"
/>
<path fill="#d00e15" d="
  M 88.74 58.81
  Q 88.56 58.05 88.62 57.28
  Q 88.65 56.76 89.17 56.69
  L 91.28 56.42
  A 0.71 0.71 0.0 0 1 92.08 57.07
  Q 92.17 58.12 92.86 58.97
  Q 93.28 59.50 92.87 60.03
  Q 92.37 60.69 92.30 61.55
  A 0.47 0.46 8.6 0 1 91.73 61.96
  L 91.45 61.90
  Q 91.20 61.84 91.20 61.58
  L 91.21 57.95
  Q 91.21 57.39 90.70 57.64
  L 90.28 57.85
  A 0.36 0.36 0.0 0 0 90.08 58.17
  L 90.00 61.71
  Q 89.99 61.92 89.79 61.93
  L 88.97 62.00
  Q 88.66 62.02 88.62 61.71
  Q 88.50 60.73 88.72 59.85
  Q 88.86 59.33 88.74 58.81
  Z"
/>
<path fill="#d00e15" d="
  M 106.09 58.79
  L 106.23 61.10
  A 0.66 0.65 -5.6 0 1 105.66 61.79
  L 105.31 61.84
  Q 104.71 61.91 104.70 61.31
  L 104.63 57.81
  Q 104.61 57.19 105.17 56.92
  Q 106.75 56.13 108.29 57.01
  Q 108.74 57.27 108.37 57.63
  Q 107.80 58.20 106.91 58.05
  Q 106.03 57.90 106.09 58.79
  Z"
/>
<path fill="#d00e15" d="
  M 125.81 60.08
  Q 127.04 59.03 125.83 57.85
  A 0.55 0.54 65.6 0 1 126.18 56.91
  L 128.99 56.79
  A 1.11 1.11 0.0 0 1 130.14 57.69
  Q 130.49 59.47 130.02 61.51
  A 0.45 0.45 0.0 0 1 129.37 61.81
  L 128.95 61.58
  Q 128.90 61.55 128.91 61.49
  Q 129.33 59.96 128.79 58.74
  Q 128.43 57.92 128.19 58.79
  Q 127.85 60.06 126.64 60.51
  Q 126.07 60.72 126.57 61.07
  Q 126.73 61.19 126.92 61.16
  Q 127.91 61.03 127.02 61.48
  Q 125.94 62.03 125.08 61.15
  Q 124.74 60.80 124.36 61.11
  Q 123.18 62.09 121.82 61.95
  Q 121.29 61.90 121.00 61.45
  Q 119.72 59.45 120.41 57.89
  Q 120.93 56.73 119.79 57.29
  Q 118.50 57.92 117.18 57.96
  A 1.10 1.10 0.0 0 0 116.12 59.14
  Q 116.21 60.33 117.48 60.56
  Q 118.43 60.73 119.18 61.20
  Q 120.11 61.77 119.03 61.94
  Q 116.34 62.36 114.80 59.77
  Q 114.50 59.27 114.68 58.71
  Q 115.27 56.87 117.18 56.71
  Q 120.02 56.46 123.46 56.94
  A 0.67 0.66 -87.5 0 1 124.04 57.58
  L 124.04 57.87
  Q 124.05 58.23 123.71 58.12
  Q 122.75 57.84 121.61 58.05
  Q 121.15 58.14 121.11 58.61
  Q 121.03 59.64 121.90 60.37
  Q 122.83 61.16 123.24 60.00
  L 123.44 59.43
  Q 123.69 58.71 124.40 58.98
  Q 124.87 59.16 124.88 59.68
  A 0.56 0.56 0.0 0 0 125.81 60.08
  Z"
/>
<path fill="#d00e15" d="
  M 32.08 58.82
  Q 33.36 59.01 34.09 60.08
  A 1.13 1.13 0.0 0 1 33.57 61.77
  Q 32.32 62.27 31.05 62.20
  Q 30.47 62.17 30.46 61.58
  Q 30.45 61.34 30.55 61.17
  Q 30.77 60.79 31.16 60.99
  Q 31.81 61.31 32.41 60.90
  Q 32.92 60.55 32.44 60.16
  Q 31.66 59.55 30.76 59.16
  C 30.05 58.85 29.73 58.08 30.12 57.38
  Q 30.43 56.83 31.05 56.79
  L 33.52 56.65
  Q 34.32 56.60 33.80 57.21
  Q 33.20 57.91 32.19 58.10
  Q 31.87 58.16 32.05 58.44
  Q 32.18 58.63 32.06 58.74
  A 0.05 0.05 0.0 0 0 32.08 58.82
  Z"
/>
<path fill="#580101" d="
  M 40.64 59.84
  Q 40.66 58.93 41.19 58.12
  A 0.57 0.56 23.9 0 1 41.80 57.89
  L 42.23 58.01
  Q 42.62 58.11 42.44 58.48
  L 41.81 59.77
  Q 41.59 60.22 41.11 60.34
  Q 40.70 60.43 40.53 60.82
  Q 40.31 61.32 39.77 61.44
  Q 39.45 61.51 39.21 61.29
  Q 38.95 61.05 38.95 60.69
  Q 38.99 58.86 39.08 57.12
  A 0.52 0.52 0.0 0 1 39.84 56.68
  L 40.22 56.89
  Q 40.76 57.17 40.51 57.72
  Q 40.09 58.62 40.21 59.61
  Q 40.23 59.78 40.33 59.85
  Q 40.44 59.91 40.58 59.91
  Q 40.64 59.90 40.64 59.84
  Z"
/>
<path fill="#d00e15" d="
  M 54.37 60.61
  L 55.36 61.37
  Q 55.91 61.80 55.24 61.97
  Q 53.54 62.41 52.81 61.32
  Q 52.42 60.74 52.54 60.06
  Q 52.78 58.61 51.82 57.76
  Q 51.22 57.23 51.94 56.89
  Q 52.68 56.53 53.37 56.88
  Q 53.82 57.11 53.84 57.62
  L 53.90 59.68
  A 1.26 1.24 18.6 0 0 54.37 60.61
  Z"
/>
<path fill="#d00e15" d="
  M 70.0284 61.7456
  A 2.63 2.44 74.6 0 1 66.9776 59.8580
  A 2.63 2.44 74.6 0 1 68.6316 56.6744
  A 2.63 2.44 74.6 0 1 71.6824 58.5620
  A 2.63 2.44 74.6 0 1 70.0284 61.7456
  Z
  M 69.8587 60.5189
  A 1.41 1.24 67.1 0 0 70.4523 58.7375
  A 1.41 1.24 67.1 0 0 68.7613 57.9211
  A 1.41 1.24 67.1 0 0 68.1677 59.7025
  A 1.41 1.24 67.1 0 0 69.8587 60.5189
  Z"
/>
<path fill="#d00e15" d="
  M 78.88 56.83
  Q 80.30 56.36 81.68 56.85
  Q 82.58 57.17 81.84 57.77
  Q 81.33 58.18 80.61 58.00
  A 1.03 1.03 0.0 0 0 79.41 59.38
  Q 79.88 60.53 79.19 61.59
  Q 78.49 62.67 78.27 61.40
  Q 77.98 59.73 78.20 57.66
  Q 78.27 57.03 78.88 56.83
  Z"
/>
<path fill="#d00e15" d="
  M 83.40 61.37
  A 0.91 0.91 0.0 0 1 82.75 60.26
  L 83.24 58.39
  A 2.36 1.79 -75.3 0 1 85.57 56.57
  L 86.33 56.76
  A 2.36 1.79 -75.3 0 1 87.46 59.50
  L 86.97 61.37
  A 0.91 0.91 0.0 0 1 85.86 62.02
  L 83.40 61.37
  Z
  M 84.48 58.82
  Q 84.78 59.58 84.51 60.40
  A 0.48 0.47 4.2 0 0 85.04 61.01
  L 85.92 60.88
  Q 86.48 60.79 86.38 60.23
  L 86.03 58.42
  A 0.70 0.70 0.0 0 0 85.17 57.88
  L 84.92 57.95
  Q 84.21 58.13 84.48 58.82
  Z"
/>
<path fill="#d00e15" d="
  M 102.95 61.33
  A 0.91 0.91 0.0 0 1 101.90 62.09
  L 100.77 61.91
  A 2.46 2.32 -80.9 0 1 98.87 59.11
  L 98.93 58.74
  A 2.46 2.32 -80.9 0 1 101.61 56.67
  L 102.74 56.86
  A 0.91 0.91 0.0 0 1 103.50 57.90
  L 102.95 61.33
  Z
  M 100.51 60.05
  Q 100.21 60.07 100.34 60.50
  A 0.53 0.52 81.5 0 0 100.86 60.89
  L 101.63 60.87
  Q 102.21 60.86 102.21 60.29
  Q 102.23 58.45 100.77 57.95
  Q 99.83 57.64 100.21 58.56
  L 100.69 59.75
  A 0.22 0.22 0.0 0 1 100.51 60.05
  Z"
/>
<path fill="#000000" d="
  M 58.35 60.59
  A 0.46 0.46 0.0 0 1 57.81 60.21
  Q 57.69 59.47 57.85 58.60
  Q 57.97 57.92 58.53 57.73
  Q 59.00 57.57 59.48 57.86
  Q 60.10 58.23 60.10 58.81
  Q 60.12 60.25 58.35 60.59
  Z"
/>
<ellipse fill="#000000" cx="0.00" cy="0.00" transform="translate(69.31,59.22) rotate(67.1)" rx="1.41" ry="1.24"/>
<path fill="#580101" d="
  M 84.48 58.82
  Q 84.21 58.13 84.92 57.95
  L 85.17 57.88
  A 0.70 0.70 0.0 0 1 86.03 58.42
  L 86.38 60.23
  Q 86.48 60.79 85.92 60.88
  L 85.04 61.01
  A 0.48 0.47 4.2 0 1 84.51 60.40
  Q 84.78 59.58 84.48 58.82
  Z"
/>
<path fill="#580101" d="
  M 100.69 59.75
  L 100.21 58.56
  Q 99.83 57.64 100.77 57.95
  Q 102.23 58.45 102.21 60.29
  Q 102.21 60.86 101.63 60.87
  L 100.86 60.89
  A 0.53 0.52 81.5 0 1 100.34 60.50
  Q 100.21 60.07 100.51 60.05
  A 0.22 0.22 0.0 0 0 100.69 59.75
  Z"
/>
<path fill="#580101" d="
  M 96.61 59.99
  Q 96.85 60.52 96.20 60.95
  A 0.63 0.62 -31.9 0 1 95.32 60.75
  Q 94.67 59.64 95.04 58.48
  A 0.82 0.81 -51.8 0 1 96.51 58.30
  Q 96.83 58.83 96.59 59.46
  A 0.69 0.69 0.0 0 0 96.61 59.99
  Z"
/>
<path fill="#d00e15" d="
  M 48.50 60.44
  L 49.37 60.49
  A 0.61 0.61 0.0 0 1 49.95 61.17
  Q 49.91 61.54 49.64 61.79
  A 0.67 0.62 23.8 0 1 49.15 61.96
  L 46.63 61.83
  Q 46.08 61.80 46.06 61.25
  Q 46.04 60.07 47.24 59.41
  Q 47.50 59.26 47.78 59.33
  Q 48.19 59.43 48.07 59.85
  Q 47.92 60.41 48.50 60.44
  Z"
/>
<path fill="#fefefe" d="
  M 64.33 61.92
  L 63.78 61.90
  A 0.88 0.87 16.6 0 1 63.06 60.57
  Q 63.34 60.11 63.84 60.01
  Q 64.68 59.85 64.91 60.59
  Q 65.02 60.95 64.99 61.33
  A 0.65 0.64 2.8 0 1 64.33 61.92
  Z"
/>
<ellipse fill="#fefefe" cx="0.00" cy="0.00" transform="translate(111.92,60.94) rotate(47.5)" rx="1.03" ry="0.94"/>
</svg>
